<svg xmlns="http://www.w3.org/2000/svg" xmlns:xlink="http://www.w3.org/1999/xlink" version="1.1" x="0px" y="0px" viewBox="0 0 100 125" enable-background="new 0 0 100 100" xml:space="preserve">
    <symbol id="boulder" viewBox="0 0 100 125">
    <polygon points="45.74,17.868 64.611,15.293 80.614,20.307 65.266,26.459 54.594,24.164 38.204,25.239 "/>
    <polygon points="36.883,59.597 57.147,60.785 62.466,84.707 29.42,84.707 "/>
    <polygon points="57.648,59.419 36.561,58.184 19.121,49.151 32.609,40.387 54.289,44.544 66.02,51.608 71.427,56.063 "/>
    <polygon points="55.238,43.492 55.238,25.726 64.657,27.751 65.668,49.772 "/>
    <polygon points="36.906,26.718 53.847,25.608 53.847,43.042 33.344,39.11 "/>
    <polygon points="18.142,50.211 35.541,59.224 27.968,84.707 6.627,84.707 "/>
    <polygon points="63.892,84.707 58.539,60.636 72.386,57.261 77.217,84.707 "/>
    <polygon points="78.629,84.707 73.628,56.289 72.942,56.409 73.386,55.872 67.104,50.697 66.045,27.646 82.147,21.191   93.373,84.707 "/>
    <text x="0" y="115" fill="#000000" font-size="5px" font-weight="bold" font-family="'Helvetica Neue', Helvetica, Arial-Unicode, Arial, Sans-serif">Created by Bakunetsu Kaito</text><text x="0" y="120" fill="#000000" font-size="5px" font-weight="bold" font-family="'Helvetica Neue', Helvetica, Arial-Unicode, Arial, Sans-serif">from the Noun Project</text>
    </symbol>
    </svg>